<svg xmlns="http://www.w3.org/2000/svg" width="3091.000000pt" height="715.000000pt" viewBox="0 0 3091.000000 715.000000" preserveAspectRatio="xMidYMid meet" class="tw-w-40 tw-h-12 tw-fill-white"><g transform="translate(0.000000,715.000000) scale(0.100000,-0.100000)" fill="#007FFF" stroke="none"><path d="M3245 6643 c-586 -48 -1104 -233 -1559 -556 -634 -450 -1069 -1113 -1230 -1874 -111 -526 -77 -1094 96 -1608 285 -845 938 -1534 1768 -1864 379 -151 726 -216 1150 -215 247 1 388 16 625 65 679 140 1318 534 1756 1084 75 95 153 205 147 209 -1 1 -43 17 -93 35 -427 159 -789 487 -985 896 -96 200 -151 402 -171 636 -32 360 64 752 259 1067 210 338 553 617 909 739 46 15 83 31 83 35 0 4 -34 53 -76 110 -589 794 -1512 1257 -2489 1246 -82 -1 -168 -3 -190 -5z m401 -1908 c559 -98 974 -584 974 -1141 0 -320 -117 -602 -344 -830 -331 -332 -819 -432 -1255 -257 -567 227 -865 867 -671 1443 136 406 484 708 906 784 106 19 282 19 390 1z m-1873 -619 c300 -94 468 -421 364 -709 -31 -85 -65 -142 -121 -200 -211 -219 -553 -230 -773 -23 -261 244 -230 654 65 858 130 90 317 120 465 74z"></path><path d="M9222 5345 c-504 -77 -945 -356 -1223 -774 -594 -894 -272 -2096 692 -2577 775 -387 1729 -146 2235 563 44 61 45 65 28 78 -11 7 -161 124 -334 259 -173 135 -317 246 -320 246 -3 0 -21 -26 -39 -57 -75 -125 -251 -278 -395 -343 -191 -87 -421 -107 -630 -55 -94 24 -271 117 -354 185 -135 113 -240 271 -297 450 -23 71 -28 109 -33 226 -7 211 28 351 130 525 60 102 209 250 315 313 424 251 961 135 1244 -267 26 -38 50 -74 52 -80 3 -9 657 489 671 511 10 17 -131 192 -243 302 -145 143 -266 230 -446 320 -157 79 -300 128 -461 161 -141 28 -452 35 -592 14z"></path><path d="M15995 5345 c-328 -52 -620 -181 -867 -382 -99 -81 -254 -247 -330 -353 -84 -118 -187 -322 -232 -460 -147 -447 -115 -930 89 -1345 230 -467 650 -809 1150 -938 171 -44 240 -52 445 -52 204 0 269 8 445 52 428 106 825 397 1062 778 278 445 345 991 183 1489 -203 623 -728 1081 -1380 1203 -119 22 -447 27 -565 8z m395 -840 c368 -56 656 -314 762 -681 20 -68 23 -101 22 -239 0 -188 -17 -265 -89 -410 -172 -348 -544 -553 -931 -514 -419 43 -760 368 -825 789 -15 99 -6 274 21 375 87 330 368 599 700 669 140 29 208 31 340 11z"></path><path d="M11762 3588 l3 -1693 1143 -3 1142 -2 0 425 0 425 -720 0 -720 0 0 1270 0 1270 -425 0 -425 0 2 -1692z"></path><path d="M18790 4275 c0 -662 4 -1039 11 -1107 35 -329 179 -640 409 -881 309 -325 725 -494 1169 -474 395 18 734 168 1011 446 221 222 356 475 422 788 23 108 23 110 26 1171 l3 1062 -426 0 -425 0 0 -1018 c0 -981 -1 -1022 -20 -1096 -106 -416 -572 -630 -956 -440 -174 86 -306 250 -355 442 -18 72 -19 120 -19 1094 l0 1018 -425 0 -425 0 0 -1005z"></path><path d="M22860 3585 l0 -1696 808 4 c775 4 812 5 921 26 623 117 1125 556 1315 1149 67 210 95 446 76 652 -20 226 -72 414 -165 605 -236 485 -676 820 -1218 927 -109 21 -135 22 -924 26 l-813 3 0 -1696z m1608 829 c388 -80 672 -430 672 -830 0 -381 -253 -708 -635 -820 -51 -15 -115 -18 -432 -21 l-373 -5 0 846 0 846 345 0 c277 0 361 -3 423 -16z"></path><path d="M26750 4475 l0 -805 170 0 170 0 2 537 3 537 234 -279 c129 -154 242 -288 251 -298 16 -17 29 -4 266 278 l249 297 5 -533 5 -534 168 -3 167 -2 0 805 0 805 -167 0 -168 0 -250 -299 c-137 -165 -254 -299 -260 -297 -5 1 -122 136 -259 299 l-249 297 -169 0 -168 0 0 -805z"></path><path d="M28950 4475 l0 -805 170 0 170 0 2 495 3 495 415 -495 415 -495 133 0 132 0 0 805 0 805 -170 0 -170 0 -2 -494 -3 -495 -415 495 -415 494 -132 0 -133 0 0 -805z"></path></g></svg>